<?xml version="1.0" encoding="UTF-8"?>
<!--Generator: Apple Native CoreSVG 232.5-->
<!DOCTYPE svg
PUBLIC "-//W3C//DTD SVG 1.1//EN"
       "http://www.w3.org/Graphics/SVG/1.1/DTD/svg11.dtd">
<svg version="1.1" xmlns="http://www.w3.org/2000/svg" xmlns:xlink="http://www.w3.org/1999/xlink" width="20.6567" height="23.3041">
 <g>
  <rect height="23.3041" opacity="0" width="20.6567" x="0" y="0"/>
  <path d="M0 17.5944C0 19.6159 1.03516 20.6218 3.06641 20.6218L14.2383 20.6218C16.2793 20.6218 17.3047 19.6159 17.3047 17.5944L17.3047 6.34443C17.3047 4.33271 16.2793 3.31708 14.2383 3.31708L3.06641 3.31708C1.03516 3.31708 0 4.33271 0 6.34443ZM3.0957 4.88935L14.2188 4.88935C15.1953 4.88935 15.7324 5.41669 15.7324 6.43232L15.7324 17.5163C15.7324 18.5319 15.1953 19.0495 14.2188 19.0495L3.0957 19.0495C2.11914 19.0495 1.57227 18.5319 1.57227 17.5163L1.57227 6.43232C1.57227 5.41669 2.11914 4.88935 3.0957 4.88935Z" fill="#ffffff" fill-opacity="0.85"/>
  <path d="M7.14844 15.5241L9.28711 14.5866L20.0195 3.83466C20.8691 2.98505 20.8691 1.67646 20.0195 0.82685L19.7852 0.60224C18.9648-0.227838 17.6465-0.188775 16.8066 0.651068L6.09375 11.364L5.11719 13.405C4.51172 14.6647 5.83984 16.0808 7.14844 15.5241Z" fill="#1e1e1e"/>
  <path d="M6.62109 14.2936L8.52539 13.4636L17.6465 4.35224L16.3086 3.03388L7.19727 12.1452L6.31836 13.9811C6.24023 14.1472 6.43555 14.3718 6.62109 14.2936ZM18.3691 3.63935L19.0723 2.91669C19.4043 2.56513 19.4043 2.09638 19.0723 1.77412L18.8477 1.53974C18.5449 1.23701 18.0664 1.27607 17.7441 1.58857L17.0312 2.29169Z" fill="#ffffff" fill-opacity="0.85"/>
 </g>
</svg>
